<?xml version="1.0" standalone="no"?>
<!DOCTYPE svg PUBLIC "-//W3C//DTD SVG 20010904//EN"
 "http://www.w3.org/TR/2001/REC-SVG-20010904/DTD/svg10.dtd">
<svg version="1.0" xmlns="http://www.w3.org/2000/svg"
 width="980.000000pt" height="980.000000pt" viewBox="0 0 980.000000 980.000000"
 preserveAspectRatio="xMidYMid meet">
<metadata>
Created by potrace 1.11, written by Peter Selinger 2001-2013
</metadata>
<g transform="translate(0.000000,980.000000) scale(0.100000,-0.100000)"
fill="#000000" stroke="none">
<path d="M2099 7327 c-125 -17 -244 -110 -292 -227 l-22 -55 0 -1760 0 -1760
26 -56 c47 -99 122 -168 225 -205 46 -16 201 -17 2864 -18 1548 -1 2838 2
2865 7 99 17 200 86 252 174 55 94 53 9 53 1855 0 1224 -3 1722 -11 1760 -27
128 -122 231 -253 274 -48 16 -239 18 -2852 18 -1540 1 -2825 -2 -2855 -7z
m5521 -313 c0 -7 -345 -355 -1626 -1640 -652 -653 -658 -659 -802 -711 -101
-37 -155 -47 -267 -46 -173 0 -305 41 -440 138 -33 24 -559 543 -1170 1154
l-1110 1111 2708 0 c1489 0 2707 -3 2707 -6z m-4710 -2529 c-442 -442 -806
-802 -810 -800 -4 3 -6 3198 -1 3214 0 3 364 -359 808 -802 l807 -808 -804
-804z m4845 795 c0 -891 -1 -1620 -3 -1620 -2 0 -447 448 -1050 1058 -151 153
-339 343 -420 424 l-147 148 805 805 c443 443 807 805 810 805 3 0 5 -729 5
-1620z m-3395 -628 c77 -64 252 -148 355 -170 173 -37 315 -33 475 15 98 29
160 59 245 116 73 49 39 18 340 318 l250 249 810 -810 810 -810 -2720 0 -2720
0 810 810 809 809 251 -248 c137 -137 266 -262 285 -279z"/>
<path d="M1928 2415 c-2 -2 -19 -7 -38 -10 -19 -3 -61 -19 -93 -35 -149 -76
-230 -214 -223 -384 4 -98 8 -114 43 -185 67 -139 232 -234 389 -225 l49 2 39
-64 38 -64 149 0 c82 0 149 2 149 5 0 3 -36 53 -80 112 l-80 108 34 35 c113
116 142 331 66 480 -47 91 -135 169 -228 201 -49 18 -203 35 -214 24z m161
-266 c79 -58 84 -227 8 -297 -45 -41 -132 -48 -189 -15 -82 48 -100 218 -31
295 46 53 153 61 212 17z"/>
<path d="M7843 2406 c-129 -25 -212 -110 -218 -223 -4 -66 11 -118 46 -161 34
-41 68 -61 201 -117 125 -52 149 -74 123 -112 -22 -31 -72 -19 -92 21 l-15 32
-134 0 c-90 -1 -134 -4 -134 -11 0 -36 35 -117 65 -152 115 -134 403 -145 525
-20 65 66 86 171 52 257 -23 56 -83 101 -204 153 -62 27 -123 55 -135 63 -29
18 -30 59 -2 74 26 14 69 -11 69 -40 0 -19 7 -20 140 -20 157 0 149 -5 125 78
-43 143 -212 216 -412 178z"/>
<path d="M2519 2399 c-7 -4 -11 -125 -11 -385 0 -209 1 -392 1 -407 l1 -28
128 3 127 3 0 142 c0 78 3 139 6 135 4 -4 39 -68 78 -142 l70 -135 141 -1 c77
-1 140 1 140 5 0 4 -4 11 -9 17 -4 5 -24 38 -43 74 -19 36 -54 97 -77 137 -22
40 -41 75 -41 78 0 2 16 11 36 20 87 36 140 132 132 239 -7 81 -37 142 -93
184 -73 56 -114 63 -358 66 -119 1 -222 -1 -228 -5z m386 -222 c11 -6 23 -15
27 -21 14 -21 8 -66 -12 -86 -18 -18 -31 -20 -88 -18 l-67 3 0 55 c-1 30 1 61
3 68 5 16 105 15 137 -1z"/>
<path d="M3714 2386 c-71 -26 -109 -51 -154 -103 -136 -154 -128 -456 15 -595
154 -149 436 -148 584 3 44 45 86 123 97 177 l7 32 -132 0 -131 0 -39 -39
c-81 -81 -201 -49 -229 62 -12 45 -9 129 6 168 12 30 66 79 90 80 69 4 119
-15 146 -55 16 -26 18 -26 151 -26 153 0 148 -4 114 84 -36 99 -135 188 -242
220 -74 22 -210 18 -283 -8z"/>
<path d="M4598 2399 c-5 -3 -9 -9 -9 -13 0 -3 -2 -11 -4 -18 -6 -16 -145 -399
-190 -523 -18 -49 -47 -128 -64 -174 -17 -47 -31 -86 -31 -88 0 -2 60 -3 134
-3 l134 0 21 63 21 63 137 0 c112 -1 137 -4 142 -16 3 -8 12 -35 21 -60 l15
-45 134 -3 133 -3 -7 28 c-3 15 -22 69 -40 118 -18 50 -68 185 -110 300 -42
116 -91 248 -108 295 l-33 85 -143 0 c-78 0 -147 -3 -153 -6z m188 -389 c14
-46 28 -90 31 -97 4 -10 -12 -13 -70 -13 l-75 0 36 110 c23 69 39 105 44 96 4
-7 19 -51 34 -96z"/>
<path d="M5270 2402 c-13 -2 -15 -53 -15 -410 l0 -407 128 -3 127 -3 1 53 c0
29 1 92 1 141 0 48 3 87 6 87 4 0 15 -17 24 -37 23 -51 118 -226 127 -236 4
-4 69 -6 144 -5 l137 3 -85 149 c-47 82 -85 153 -85 157 0 4 16 16 36 25 152
72 178 298 49 412 -73 64 -125 75 -370 76 -115 1 -217 0 -225 -2z m396 -237
c29 -29 31 -68 4 -95 -16 -16 -33 -20 -89 -20 l-69 0 -1 70 0 69 66 0 c55 -1
69 -4 89 -24z"/>
<path d="M5992 2400 c-4 -3 -7 -49 -7 -103 l0 -97 108 0 c95 0 107 -2 108 -17
0 -10 1 -149 1 -310 l1 -291 128 -1 129 -2 0 311 0 310 110 0 111 0 -3 102 -3
103 -338 0 c-186 0 -342 -2 -345 -5z"/>
<path d="M6987 2398 c-7 -4 -9 -8 -6 -8 4 0 -11 -46 -33 -102 -22 -57 -45
-121 -52 -143 -7 -22 -27 -76 -44 -120 -17 -44 -58 -154 -90 -245 -33 -91 -63
-172 -67 -182 -6 -14 7 -16 128 -17 l134 -2 17 48 c30 83 19 78 167 78 l133 0
21 -60 20 -60 134 -3 133 -3 -6 28 c-4 15 -24 75 -46 133 -68 184 -147 401
-191 525 -23 66 -46 124 -51 130 -10 11 -283 14 -301 3z m193 -399 c16 -51 30
-94 30 -96 0 -2 -33 -3 -73 -3 l-73 0 35 110 c22 70 38 105 43 97 4 -8 21 -56
38 -108z"/>
</g>
</svg>
